<svg xmlns="http://www.w3.org/2000/svg" viewBox="0 0 500 1000" preserveAspectRatio="xMidYMid meet">
  <defs>
    <linearGradient id="bg" x1="0" y1="0" x2="1" y2="1">
      <stop offset="0%" stop-color="#f8fafc" />
      <stop offset="100%" stop-color="#e2e8f0" />
    </linearGradient>
    <linearGradient id="screen" x1="0" y1="0" x2="1" y2="1">
      <stop offset="0%" stop-color="#ffffff" />
      <stop offset="100%" stop-color="#cbd5e1" />
    </linearGradient>
  </defs>
  <rect width="500" height="1000" rx="80" fill="url(#bg)" />
  <rect x="50" y="80" width="400" height="740" rx="50" fill="url(#screen)" stroke="#94a3b8" stroke-width="8" />
  <rect x="170" y="160" width="160" height="16" rx="8" fill="#cbd5e1" />
  <rect x="120" y="240" width="260" height="42" rx="21" fill="#f8fafc" />
  <rect x="120" y="310" width="260" height="16" rx="8" fill="#e2e8f0" />
  <rect x="120" y="350" width="260" height="16" rx="8" fill="#e2e8f0" />
  <rect x="120" y="390" width="180" height="16" rx="8" fill="#e2e8f0" />
  <rect x="120" y="430" width="240" height="16" rx="8" fill="#e2e8f0" />
  <rect x="120" y="470" width="180" height="16" rx="8" fill="#e2e8f0" />
  <rect x="120" y="560" width="260" height="16" rx="8" fill="#e2e8f0" />
  <circle cx="250" cy="880" r="28" fill="#cbd5e1" />
  <text x="250" y="650" font-family="Inter, system-ui, sans-serif" font-size="48" fill="#475569" text-anchor="middle">Mobile</text>
  <text x="250" y="720" font-family="Inter, system-ui, sans-serif" font-size="30" fill="#64748b" text-anchor="middle">placeholder</text>
</svg>
